<svg width="50" height="50" viewBox="0 0 50 50" fill="none" xmlns="http://www.w3.org/2000/svg">
<g clip-path="url(#clip0_1_2)">
<path d="M25 50C38.8071 50 50 38.8071 50 25C50 11.1929 38.8071 0 25 0C11.1929 0 0 11.1929 0 25C0 38.8071 11.1929 50 25 50Z" fill="#FF610A"/>
<path d="M25.2688 44.6238C36.2551 44.6238 45.1613 35.7177 45.1613 24.7313C45.1613 13.745 36.2551 4.83884 25.2688 4.83884C14.2825 4.83884 5.37633 13.745 5.37633 24.7313C5.37633 35.7177 14.2825 44.6238 25.2688 44.6238Z" stroke="#FF803A" stroke-width="1.93548"/>
<path d="M25.5377 39.2471C33.7032 39.2471 40.3226 32.6277 40.3226 24.4622C40.3226 16.2967 33.7032 9.67722 25.5377 9.67722C17.3722 9.67722 10.7527 16.2967 10.7527 24.4622C10.7527 32.6277 17.3722 39.2471 25.5377 39.2471Z" stroke="#FF803A" stroke-width="1.93548"/>
<path d="M25.5377 33.8709C30.7339 33.8709 34.9463 29.6586 34.9463 24.4623C34.9463 19.2661 30.7339 15.0537 25.5377 15.0537C20.3414 15.0537 16.1291 19.2661 16.1291 24.4623C16.1291 29.6586 20.3414 33.8709 25.5377 33.8709Z" stroke="#FF803A" stroke-width="1.93548"/>
<mask id="mask0_1_2" style="mask-type:alpha" maskUnits="userSpaceOnUse" x="0" y="0" width="50" height="50">
<path d="M25 50C38.8071 50 50 38.8071 50 25C50 11.1929 38.8071 0 25 0C11.1929 0 0 11.1929 0 25C0 38.8071 11.1929 50 25 50Z" fill="#FF610A"/>
</mask>
<g mask="url(#mask0_1_2)">
<path d="M57.2578 27.9568L36.559 12.3655L29.301 8.87085H20.9677L15.5912 12.3655L11.8278 22.0428V37.0967L24.4622 58.3332L43.0107 56.9892L57.2578 27.9568Z" fill="black" fill-opacity="0.18"/>
<path d="M25.5377 29.5697C28.3585 29.5697 30.6452 27.283 30.6452 24.4622C30.6452 21.6414 28.3585 19.3546 25.5377 19.3546C22.7169 19.3546 20.4301 21.6414 20.4301 24.4622C20.4301 27.283 22.7169 29.5697 25.5377 29.5697Z" fill="#FF3103"/>
</g>
<mask id="mask1_1_2" style="mask-type:luminance" maskUnits="userSpaceOnUse" x="5" y="5" width="40" height="40">
<path d="M5.91417 5.9139H44.0862V44.0859H5.91417V5.9139Z" fill="white"/>
</mask>
<g mask="url(#mask1_1_2)">
<path fill-rule="evenodd" clip-rule="evenodd" d="M9.08394 19.3362H10.4612C10.8256 19.3362 10.8493 19.1053 10.8622 18.9792L10.8635 18.9668C11.5857 12.1625 17.3594 6.84367 24.352 6.84367H25.6482C32.5892 6.84367 38.329 12.0839 39.1199 18.816L39.1245 18.8578C39.1435 19.039 39.1747 19.3362 39.4679 19.3362H40.9164C40.9889 19.3362 41.0687 19.342 41.1544 19.355H40.8602V32.6508H36.308C35.3574 32.6508 34.5795 31.8732 34.5795 30.9223V21.0647C34.5795 20.114 35.3574 19.3362 36.308 19.3362C36.308 19.3362 36.525 19.3172 36.4697 18.9307C35.7092 13.6102 31.1692 9.48717 25.6482 9.48717H24.352C18.8685 9.48717 14.3164 13.5493 13.5458 18.8223C13.543 18.8415 13.5393 18.8628 13.5354 18.8858C13.5046 19.0657 13.4582 19.3362 13.6922 19.3362C14.6429 19.3362 15.4207 20.114 15.4207 21.0647V30.9223C15.4207 31.8732 14.6429 32.6508 13.6922 32.6508H12.8269C12.589 32.6508 12.6294 32.841 12.6506 32.9368C13.3556 36.1198 14.9384 39.731 18.4912 39.731H21.1229C21.3622 39.731 21.4409 39.5748 21.4914 39.4748C21.4937 39.47 21.496 39.4653 21.4984 39.4608C21.5019 39.4538 21.5054 39.4472 21.5089 39.4408C21.9352 38.662 22.7619 38.1337 23.7125 38.1337H26.1374C27.5244 38.1337 28.6489 39.258 28.6489 40.6452C28.6489 42.0323 27.5244 43.1565 26.1374 43.1565H23.7125C22.749 43.1565 21.9125 42.614 21.4915 41.8177C21.4874 41.8098 21.4832 41.801 21.4789 41.7913C21.4447 41.717 21.3922 41.6035 21.1404 41.6035H18.4912C16.078 41.6035 12.8487 40.4043 11.1681 34.6913C10.989 34.0825 10.8437 33.4757 10.7254 32.891L10.7219 32.8727C10.7064 32.7887 10.6811 32.651 10.4478 32.651H9.67746V19.3548H9.13983V32.651H9.08384C8.13318 32.651 5.91411 31.7867 5.91411 28.04V25.3887C5.91421 20.4087 8.13327 19.3362 9.08394 19.3362ZM41.3979 32.5905V19.4082C42.4625 19.7103 44.0862 21.0672 44.0862 25.3885V28.0398C44.0862 31.2448 42.4625 32.3407 41.3979 32.5905Z" fill="#FFF2F2"/>
</g>
</g>
<defs>
<clipPath id="clip0_1_2">
<rect width="50" height="50" fill="white"/>
</clipPath>
</defs>
</svg>
