<svg width="50" height="50" viewBox="0 0 50 50" fill="none" xmlns="http://www.w3.org/2000/svg">
<g clip-path="url(#clip0_1_18)">
<path d="M50 29.2256V20.7744L43.3594 19.957C42.9414 18.4336 42.333 16.9707 41.542 15.5869L45.5947 10.377L39.623 4.40527L34.4131 8.45801C33.0293 7.66699 31.5664 7.05859 30.043 6.64062L29.2256 0H20.7744L19.957 6.64062C18.4336 7.05859 16.9707 7.66699 15.5869 8.45801L10.377 4.40527L4.40527 10.377L8.45801 15.5869C7.66699 16.9707 7.05859 18.4336 6.64062 19.957L0 20.7744V29.2256L6.64062 30.043C7.05859 31.5664 7.66699 33.0293 8.45801 34.4131L4.40527 39.6221L10.377 45.5947L15.5869 41.542C16.9707 42.333 18.4336 42.9414 19.957 43.3594L20.7744 50H29.2256L30.043 43.3594C31.5664 42.9414 33.0293 42.333 34.4131 41.542L39.623 45.5947L45.5947 39.6221L41.542 34.4131C42.333 33.0293 42.9414 31.5664 43.3594 30.043L50 29.2256ZM25 35.2539C19.3457 35.2539 14.7461 30.6543 14.7461 25C14.7461 19.3457 19.3457 14.7461 25 14.7461C30.6543 14.7461 35.2539 19.3457 35.2539 25C35.2539 30.6543 30.6543 35.2539 25 35.2539Z" fill="#595959"/>
</g>
<defs>
<clipPath id="clip0_1_18">
<rect width="50" height="50" fill="white"/>
</clipPath>
</defs>
</svg>
