<svg width="50" height="50" viewBox="0 0 50 50" fill="none" xmlns="http://www.w3.org/2000/svg">
<g clip-path="url(#clip0_148_167)">
<path d="M46 0H4C1.79086 0 0 1.79086 0 4V46C0 48.2091 1.79086 50 4 50H46C48.2091 50 50 48.2091 50 46V4C50 1.79086 48.2091 0 46 0Z" fill="#E6E5FF"/>
<path d="M22.7148 15.4336C28.75 15.7852 33.9648 21 34.3164 26.9766C34.375 27.7383 33.7891 28.4414 33.0273 28.5C32.9688 28.5 32.9688 28.5 32.9102 28.5C32.207 28.5 31.5625 27.9141 31.5625 27.1523C31.2109 22.5234 27.168 18.4805 22.5391 18.1875C21.7773 18.1875 21.1914 17.4844 21.25 16.7227C21.25 15.9609 21.9531 15.375 22.7148 15.4336ZM23.125 9.75C32.3828 9.75 40 17.3672 40 26.625C40 27.6797 39.1211 28.5 38.125 28.5C37.0703 28.5 36.25 27.6797 36.25 26.625C36.25 19.418 30.332 13.5 23.125 13.5C22.0703 13.5 21.25 12.6797 21.25 11.625C21.25 10.6289 22.0703 9.75 23.125 9.75ZM20.0781 23.0508C24.4727 23.9297 27.6953 28.3242 26.6406 33.1289C25.9961 36.293 23.418 38.8711 20.2539 39.5156C14.8047 40.6875 10 36.5273 10 31.3125V16.7812C10 16.0195 10.5859 15.4336 11.3477 15.4336H14.1602C14.9805 15.4336 15.5664 16.0195 15.5664 16.7812V31.2539C15.5664 32.7188 16.8555 34.0078 18.4375 34.0078C19.9609 34.0078 21.25 32.7773 21.25 31.2539C21.25 30.082 20.4297 29.0273 19.375 28.6758C18.8477 28.5 18.4375 28.0312 18.4375 27.3867V24.457C18.4375 23.5781 19.1992 22.875 20.0781 23.0508Z" fill="#3F3EED"/>
</g>
<defs>
<clipPath id="clip0_148_167">
<rect width="50" height="50" fill="white"/>
</clipPath>
</defs>
</svg>
