<svg width="22" height="22" viewBox="0 0 22 22" fill="none" xmlns="http://www.w3.org/2000/svg">
<path fill-rule="evenodd" clip-rule="evenodd" d="M16.0158 10.8108C16.017 10.7178 15.9812 10.628 15.9162 10.5613C15.8513 10.4947 15.7625 10.4565 15.6694 10.4553L7.39191 10.3471L9.62961 8.1678C9.69641 8.1028 9.73461 8.0139 9.73581 7.9207C9.73701 7.8275 9.70121 7.7376 9.63611 7.6709C9.57111 7.6041 9.48221 7.5659 9.38901 7.5647C9.29581 7.5635 9.20591 7.5993 9.13921 7.6644L6.29491 10.4353C6.26171 10.4675 6.23531 10.5059 6.21711 10.5483C6.19881 10.5907 6.18911 10.6363 6.18851 10.6824C6.18791 10.7286 6.19641 10.7744 6.21351 10.8173C6.23071 10.8601 6.25611 10.8992 6.28841 10.9322L9.05931 13.7765C9.09151 13.8096 9.12991 13.836 9.17231 13.8542C9.21471 13.8724 9.26031 13.8821 9.30641 13.8827C9.39961 13.8839 9.48951 13.8481 9.55621 13.783C9.62301 13.718 9.66121 13.6291 9.66241 13.5359C9.66361 13.4427 9.62781 13.3529 9.56271 13.2861L7.38271 11.049L15.6603 11.1572C15.7533 11.1584 15.8431 11.1226 15.9098 11.0577C15.9764 10.9927 16.0146 10.9039 16.0158 10.8108Z" fill="black"/>
<mask id="mask0_171_159" style="mask-type:luminance" maskUnits="userSpaceOnUse" x="6" y="7" width="11" height="7">
<path fill-rule="evenodd" clip-rule="evenodd" d="M16.0158 10.8108C16.017 10.7178 15.9812 10.628 15.9162 10.5613C15.8513 10.4947 15.7625 10.4565 15.6694 10.4553L7.39191 10.3471L9.62961 8.1678C9.69641 8.1028 9.73461 8.0139 9.73581 7.9207C9.73701 7.8275 9.70121 7.7376 9.63611 7.6709C9.57111 7.6041 9.48221 7.5659 9.38901 7.5647C9.29581 7.5635 9.20591 7.5993 9.13921 7.6644L6.29491 10.4353C6.26171 10.4675 6.23531 10.5059 6.21711 10.5483C6.19881 10.5907 6.18911 10.6363 6.18851 10.6824C6.18791 10.7286 6.19641 10.7744 6.21351 10.8173C6.23071 10.8601 6.25611 10.8992 6.28841 10.9322L9.05931 13.7765C9.09151 13.8096 9.12991 13.836 9.17231 13.8542C9.21471 13.8724 9.26031 13.8821 9.30641 13.8827C9.39961 13.8839 9.48951 13.8481 9.55621 13.783C9.62301 13.718 9.66121 13.6291 9.66241 13.5359C9.66361 13.4427 9.62781 13.3529 9.56271 13.2861L7.38271 11.049L15.6603 11.1572C15.7533 11.1584 15.8431 11.1226 15.9098 11.0577C15.9764 10.9927 16.0146 10.9039 16.0158 10.8108Z" fill="white"/>
</mask>
<g mask="url(#mask0_171_159)">
<path d="M7.39178 10.3471L5.29867 8.1979L0.108887 13.2522L7.35258 13.3469L7.39178 10.3471ZM6.29478 10.4353L8.38548 12.5868L8.38818 12.5841L6.29478 10.4353ZM6.28828 10.9322L8.43708 8.8388L8.43448 8.8361L6.28828 10.9322ZM7.38258 11.049L7.42178 8.0493L0.178116 7.9546L5.23405 13.1428L7.38258 11.049ZM19.0154 10.85C19.0271 9.9614 18.6852 9.1045 18.065 8.4679L13.7673 12.6548C13.277 12.1515 13.0068 11.4741 13.016 10.7716L19.0154 10.85ZM18.065 8.4679C17.4448 7.8313 16.5972 7.4672 15.7085 7.4556L15.6301 13.455C14.9276 13.4459 14.2575 13.158 13.7673 12.6548L18.065 8.4679ZM15.7085 7.4556L7.43098 7.3474L7.35258 13.3469L15.6301 13.455L15.7085 7.4556ZM9.48478 12.4963L11.7226 10.317L7.53638 6.0186L5.29867 8.1979L9.48478 12.4963ZM11.7226 10.317C12.3593 9.6967 12.7238 8.8487 12.7354 7.9599L6.73588 7.8815C6.74508 7.1791 7.03318 6.5088 7.53638 6.0186L11.7226 10.317ZM12.7354 7.9599C12.747 7.0711 12.4051 6.2141 11.7849 5.57743L7.48718 9.7643C6.99698 9.2611 6.72678 8.5839 6.73588 7.8815L12.7354 7.9599ZM11.7849 5.57743C11.1646 4.94076 10.3169 4.57656 9.42808 4.56494L9.34968 10.5644C8.64728 10.5553 7.97728 10.2674 7.48718 9.7643L11.7849 5.57743ZM9.42808 4.56494C8.53928 4.55333 7.68228 4.89525 7.04558 5.5155L11.2325 9.8132C10.7293 10.3034 10.0521 10.5736 9.34968 10.5644L9.42808 4.56494ZM7.04558 5.5155L4.20131 8.2864L8.38818 12.5841L11.2325 9.8132L7.04558 5.5155ZM4.20403 8.2838C3.88792 8.591 3.63552 8.9575 3.46129 9.3623L8.97258 11.7342C8.83488 12.0542 8.63528 12.344 8.38548 12.5868L4.20403 8.2838ZM3.46129 9.3623C3.28705 9.7672 3.1944 10.2025 3.18864 10.6432L9.18808 10.7216C9.18358 11.07 9.11028 11.4141 8.97258 11.7342L3.46129 9.3623ZM3.18864 10.6432C3.18288 11.0839 3.26412 11.5215 3.42772 11.9308L8.99908 9.7038C9.12848 10.0273 9.19268 10.3732 9.18808 10.7216L3.18864 10.6432ZM3.42772 11.9308C3.59132 12.34 3.83405 12.713 4.14203 13.0284L8.43448 8.8361C8.67788 9.0854 8.86978 9.3802 8.99908 9.7038L3.42772 11.9308ZM4.13938 13.0257L6.91028 15.87L11.208 11.6831L8.43708 8.8388L4.13938 13.0257ZM6.91028 15.87C7.21738 16.1852 7.58358 16.4369 7.98798 16.6106L10.3564 11.0978C10.6759 11.2351 10.9653 11.434 11.208 11.6831L6.91028 15.87ZM7.98798 16.6106C8.39238 16.7843 8.82698 16.8767 9.26708 16.8825L9.34548 10.883C9.69328 10.8875 10.0368 10.9605 10.3564 11.0978L7.98798 16.6106ZM9.26708 16.8825C10.1559 16.8941 11.0129 16.5522 11.6496 15.9319L7.46268 11.6342C7.96588 11.144 8.64308 10.8738 9.34548 10.883L9.26708 16.8825ZM11.6496 15.9319C12.2862 15.3117 12.6504 14.4639 12.662 13.5751L6.66258 13.4967C6.67168 12.7943 6.95958 12.1244 7.46268 11.6342L11.6496 15.9319ZM12.662 13.5751C12.6737 12.6863 12.3317 11.8293 11.7115 11.1927L7.41378 15.3795C6.92358 14.8764 6.65338 14.1991 6.66258 13.4967L12.662 13.5751ZM11.7115 11.1927L9.53108 8.9553L5.23405 13.1428L7.41378 15.3795L11.7115 11.1927ZM7.34338 14.0488L15.621 14.157L15.6994 8.1575L7.42178 8.0493L7.34338 14.0488ZM15.621 14.157C16.5096 14.1686 17.3665 13.8267 18.0031 13.2065L13.8162 8.9088C14.3195 8.4186 14.9969 8.1483 15.6994 8.1575L15.621 14.157ZM18.0031 13.2065C18.6397 12.5864 19.0038 11.7387 19.0154 10.85L13.016 10.7716C13.0251 10.0691 13.313 9.3991 13.8162 8.9088L18.0031 13.2065Z" fill="white"/>
</g>
</svg>
