<svg width="32" height="32" viewBox="0 0 32 32" fill="none" xmlns="http://www.w3.org/2000/svg">
<path d="M20.0663 6.66659C21.3686 6.92067 22.5654 7.5576 23.5037 8.49583C24.4419 9.43407 25.0788 10.6309 25.3329 11.9333M20.0663 1.33325C22.772 1.63383 25.295 2.84549 27.2212 4.76926C29.1474 6.69304 30.3623 9.2146 30.6663 11.9199M29.3329 22.5599V26.5599C29.3344 26.9313 29.2584 27.2988 29.1096 27.6391C28.9608 27.9793 28.7427 28.2847 28.469 28.5357C28.1954 28.7868 27.8724 28.9779 27.5206 29.0969C27.1688 29.2158 26.7961 29.26 26.4263 29.2266C22.3234 28.7808 18.3823 27.3788 14.9196 25.1333C11.698 23.0861 8.9667 20.3548 6.91959 17.1333C4.66622 13.6549 3.26391 9.69458 2.82625 5.57325C2.79293 5.20454 2.83675 4.83293 2.95492 4.48208C3.07309 4.13124 3.26301 3.80884 3.51261 3.53541C3.7622 3.26199 4.06599 3.04353 4.40464 2.89395C4.74329 2.74436 5.10937 2.66693 5.47959 2.66659H9.47959C10.1267 2.66022 10.754 2.88936 11.2446 3.3113C11.7352 3.73323 12.0557 4.31918 12.1463 4.95992C12.3151 6.24001 12.6282 7.49689 13.0796 8.70659C13.259 9.18382 13.2978 9.70247 13.1915 10.2011C13.0851 10.6997 12.8381 11.1574 12.4796 11.5199L10.7863 13.2133C12.6843 16.5513 15.4482 19.3152 18.7863 21.2133L20.4796 19.5199C20.8421 19.1614 21.2998 18.9144 21.7984 18.808C22.297 18.7017 22.8157 18.7405 23.2929 18.9199C24.5026 19.3713 25.7595 19.6844 27.0396 19.8533C27.6873 19.9446 28.2788 20.2709 28.7016 20.7699C29.1245 21.269 29.3491 21.906 29.3329 22.5599Z" stroke="#0A2540" stroke-width="2" stroke-linecap="round" stroke-linejoin="round"/>
</svg>
